<svg width="96" height="96" viewBox="0 0 96 96" fill="none" xmlns="http://www.w3.org/2000/svg">
<path d="M96 48.9125H6.30801C6.43943 56.943 8.47638 64.1217 12.4189 70.4487C16.3614 76.7757 21.7495 81.7034 28.5832 85.2319C35.5483 88.7605 43.3019 90.5247 51.8439 90.5247C58.809 90.5247 65.2485 89.3688 71.1622 87.057C77.076 84.6236 81.9384 81.0951 85.7495 76.4715L89.8891 80.4867C85.2895 85.4753 79.7043 89.308 73.1335 91.9848C66.5626 94.6616 59.4661 96 51.8439 96C41.8563 96 32.9199 93.9924 25.0349 89.9772C17.2813 85.8403 11.1704 80.1217 6.70226 72.8213C2.23409 65.5209 0 57.2471 0 48C0 38.7528 2.03696 30.4791 6.11088 23.1787C10.3162 15.8783 16.0986 10.2205 23.4579 6.20532C30.8173 2.06844 39.0308 0 48.0986 0C57.0349 0 65.117 2.0076 72.345 6.02281C79.7043 10.038 85.4867 15.635 89.692 22.8137C93.8973 29.9924 96 38.1445 96 47.27V48.9125ZM48.0986 5.47527C40.4764 5.47527 33.577 7.11786 27.4004 10.403C21.2238 13.6882 16.2957 18.3118 12.616 24.2738C8.93635 30.1141 6.89938 36.6844 6.50513 43.9848H89.8891C89.3634 36.6844 87.1951 30.1141 83.384 24.2738C79.7043 18.3118 74.7762 13.6882 68.5996 10.403C62.5544 7.11786 55.7207 5.47527 48.0986 5.47527Z" fill="currentColor"/>
</svg>
