<svg width="12" height="19" viewBox="0 0 12 19" fill="none" xmlns="http://www.w3.org/2000/svg">
<path fill-rule="evenodd" clip-rule="evenodd" d="M6 0C7.65685 0 9 1.34315 9 3V10C9 11.6569 7.65685 13 6 13C4.34315 13 3 11.6569 3 10V3C3 1.34315 4.34315 0 6 0ZM11.25 6.5C10.8358 6.5 10.5 6.83579 10.5 7.25V10C10.5 12.4853 8.48528 14.5 6 14.5C3.51472 14.5 1.5 12.4853 1.5 10V7.25C1.5 6.83579 1.16421 6.5 0.75 6.5C0.335786 6.5 0 6.83579 0 7.25V10C0.00148134 13.0226 2.25111 15.5722 5.25 15.95V17.5H3.25C2.83579 17.5 2.5 17.8358 2.5 18.25C2.5 18.6642 2.83579 19 3.25 19H8.75C9.16421 19 9.5 18.6642 9.5 18.25C9.5 17.8358 9.16421 17.5 8.75 17.5H6.75V15.95C9.74889 15.5722 11.9985 13.0226 12 10V7.25C12 6.83579 11.6642 6.5 11.25 6.5Z" fill="white"/>
</svg>
