<svg width="41" height="64" viewBox="0 0 41 64" fill="none" xmlns="http://www.w3.org/2000/svg">
<path fill-rule="evenodd" clip-rule="evenodd" d="M20.2105 0V0C25.7915 0 30.3158 4.52428 30.3158 10.1053V33.6842C30.3158 39.2652 25.7915 43.7895 20.2105 43.7895V43.7895C14.6295 43.7895 10.1053 39.2652 10.1053 33.6842V10.1053C10.1053 4.52428 14.6295 0 20.2105 0ZM37.8947 21.8947C36.4995 21.8947 35.3684 23.0258 35.3684 24.421V33.6842C35.3684 42.0556 28.582 48.8421 20.2105 48.8421C11.8391 48.8421 5.05263 42.0556 5.05263 33.6842V24.421C5.05263 23.0258 3.92156 21.8947 2.52632 21.8947C1.13107 21.8947 0 23.0258 0 24.421V33.6842C0.00498979 43.8655 7.58269 52.4536 17.6842 53.7263V58.9473H10.9474C9.55212 58.9473 8.42105 60.0784 8.42105 61.4736C8.42105 62.8689 9.55212 64 10.9474 64H29.4737C30.8689 64 32 62.8689 32 61.4736C32 60.0784 30.8689 58.9473 29.4737 58.9473H22.7368V53.7263C32.8384 52.4536 40.4161 43.8655 40.4211 33.6842V24.421C40.4211 23.0258 39.29 21.8947 37.8947 21.8947V21.8947Z" fill="white"/>
</svg>
