<svg width="14" height="14" viewBox="0 0 14 14" fill="none" xmlns="http://www.w3.org/2000/svg">
<path fill-rule="evenodd" clip-rule="evenodd" d="M13.7431 12.5741L9.91009 8.73956C10.5972 7.80246 10.9652 6.66953 10.9601 5.50756C10.947 2.47441 8.49372 0.0175744 5.46059 5.57178e-05C4.00907 -0.00651157 2.61522 0.567712 1.58953 1.59481C0.563845 2.6219 -0.00846493 4.01655 9.46502e-05 5.46806C0.0132044 8.50148 2.4667 10.9585 5.50009 10.9761C6.6668 10.9811 7.80387 10.6088 8.74159 9.91456L8.74559 9.91156L12.5751 13.7431C12.7821 13.9603 13.0907 14.0482 13.3811 13.9728C13.6716 13.8973 13.8983 13.6704 13.9735 13.3799C14.0487 13.0894 13.9605 12.7809 13.7431 12.5741ZM5.49611 9.87807C3.06952 9.86411 1.10676 7.89867 1.09611 5.47207C1.08956 4.31101 1.54744 3.19552 2.36784 2.37391C3.18823 1.55229 4.30304 1.09275 5.46411 1.09757C7.89069 1.11153 9.85346 3.07697 9.86411 5.50357C9.87066 6.66463 9.41277 7.78012 8.59238 8.60174C7.77198 9.42335 6.65717 9.88289 5.49611 9.87807Z" fill="white"/>
</svg>
