<svg width="64" height="64" viewBox="0 0 64 64" fill="none" xmlns="http://www.w3.org/2000/svg">
<path fill-rule="evenodd" clip-rule="evenodd" d="M62.8262 57.4819L45.3037 39.9526C48.4446 35.6687 50.1272 30.4896 50.1038 25.1776C50.0438 11.3117 38.8288 0.080341 24.963 0.000254712C18.3274 -0.0297675 11.9554 2.59528 7.26649 7.29061C2.5776 11.9859 -0.0386972 18.3615 0.000432691 24.9971C0.0603634 38.8643 11.2764 50.0966 25.1435 50.1767C30.4771 50.1998 35.6752 48.4976 39.9619 45.3241L39.9802 45.3104L57.4867 62.826C58.4332 63.819 59.8436 64.2209 61.1714 63.8761C62.4991 63.5312 63.5357 62.4938 63.8794 61.1657C64.2231 59.8376 63.82 58.4276 62.8262 57.4819V57.4819ZM25.1254 45.1574C14.0324 45.0935 5.05966 36.1086 5.01096 25.0155C4.98102 19.7077 7.07423 14.6083 10.8246 10.8523C14.575 7.0963 19.6714 4.99551 24.9791 5.01755C36.0722 5.08137 45.0449 14.0663 45.0936 25.1595C45.1236 30.4672 43.0304 35.5666 39.2799 39.3226C35.5295 43.0786 30.4332 45.1794 25.1254 45.1574Z" fill="white"/>
</svg>
